<?xml version="1.0" encoding="UTF-8" standalone="no"?><!DOCTYPE svg PUBLIC "-//W3C//DTD SVG 1.1//EN" "http://www.w3.org/Graphics/SVG/1.1/DTD/svg11.dtd"><svg width="100%" height="100%" viewBox="0 0 783 89" version="1.1" xmlns="http://www.w3.org/2000/svg" xmlns:xlink="http://www.w3.org/1999/xlink" xml:space="preserve" xmlns:serif="http://www.serif.com/" style="fill-rule:evenodd;clip-rule:evenodd;stroke-linecap:round;stroke-linejoin:round;stroke-miterlimit:1.5;"><rect id="title_border" x="0" y="0.032" width="782.419" height="88.559" style="fill:none;"/><clipPath id="_clip1"><rect x="0" y="0.032" width="782.419" height="88.559"/></clipPath><g clip-path="url(#_clip1)"><g><circle cx="37.35" cy="61.816" r="10.289" style="fill:none;stroke:#2d2615;stroke-width:3px;"/><circle cx="37.35" cy="61.816" r="14.561" style="fill:none;stroke:#2d2615;stroke-width:3px;"/><circle cx="91.948" cy="61.816" r="10.289" style="fill:none;stroke:#2d2615;stroke-width:3px;"/><circle cx="91.948" cy="18.888" r="10.289" style="fill:none;stroke:#2d2615;stroke-width:3px;"/><circle cx="37.35" cy="18.888" r="10.289" style="fill:none;stroke:#2d2615;stroke-width:3px;"/><circle cx="37.35" cy="18.888" r="14.561" style="fill:none;stroke:#2d2615;stroke-width:3px;"/><circle cx="91.948" cy="61.816" r="14.561" style="fill:none;stroke:#2d2615;stroke-width:3px;"/><circle cx="91.948" cy="18.888" r="14.561" style="fill:none;stroke:#2d2615;stroke-width:3px;"/><path d="M57.209,55.61c0,-2.128 -2.286,-4.114 -3.66,-5.511c-0.905,-0.92 -1.54,-2.15 -2.345,-3.155c-1.575,-1.965 -4.255,-4.321 -4.847,-6.901c-0.144,-0.63 1.342,-1.691 1.698,-2.085c1.577,-1.741 3.271,-3.398 4.888,-5.107c1.508,-1.594 3.001,-4.304 3.9,-6.334c0.264,-0.596 0.332,-1.968 0.71,-2.408c0.624,-0.729 2.152,-0.622 2.991,-0.648c2.609,-0.08 5.225,-0.026 7.835,-0.026c0.711,-0 2.081,-0.466 2.723,-0.135c0.815,0.42 0.917,2.081 1.187,2.843c0.734,2.069 2.05,4.186 3.015,6.164c0.9,1.845 2.466,3.034 3.573,4.703c0.241,0.364 1.009,0.905 1.121,1.303c0.266,0.946 -2.044,2.983 -2.491,3.765c-1.605,2.804 -3.194,6.072 -4.312,9.092c-0.445,1.202 -0.38,3.586 -1.5,4.417c-1.061,0.788 -3.087,0.538 -4.32,0.433c-2.807,-0.239 -5.683,-0.077 -8.499,-0.077" style="fill:none;stroke:#2d2615;stroke-width:3px;"/><path d="M60.377,52.776c-1.522,-2.816 -3.291,-6.034 -5.344,-8.496c-0.571,-0.685 -1.144,-1.496 -1.599,-2.272c-0.086,-0.148 -0.606,-0.605 -0.57,-0.75c0.338,-1.366 2.665,-2.237 3.386,-3.457c1.214,-2.052 2.799,-3.829 3.896,-5.965c0.361,-0.703 0.449,-2.302 1.07,-2.726c1.144,-0.782 3.037,-0.352 4.329,-0.346c0.771,0.004 2.439,-0.322 3.103,0.106c0.763,0.493 0.82,1.958 0.954,2.741c0.313,1.834 1.045,4.134 2.158,5.628c0.36,0.484 1.674,2.005 1.568,2.541c-0.18,0.905 -1.407,1.613 -2.017,2.246c-1.138,1.179 -2.147,2.825 -2.757,4.321c-0.583,1.43 -0.71,3.13 -1.11,4.628c-0.126,0.471 -0.017,1.226 -0.47,1.551c-1.353,0.974 -4.017,0.117 -5.597,0.095" style="fill:none;stroke:#2d2615;stroke-width:3px;"/><path d="M63.544,48.441c-1.738,-0.962 -2.47,-3.317 -3.502,-4.903c-0.171,-0.263 -1.231,-1.193 -1.204,-1.433c0.112,-1.032 2.24,-2.472 2.788,-3.445c0.526,-0.933 1.169,-3.179 2.076,-3.734c0.296,-0.181 1.569,1.43 1.744,1.633c1.785,2.067 0.994,4.503 0.187,6.754c-0.586,1.637 -0.824,3.282 -1.569,4.873" style="fill:none;stroke:#2d2615;stroke-width:3px;"/><path d="M39.163,-2.155c6.849,-0 11.266,5.268 15.325,10.012c1.443,1.687 3.114,3.129 4.349,4.989c1.304,1.964 2.7,4.103 4.425,5.733c0.119,0.112 0.696,-0.835 0.74,-0.897c0.576,-0.817 0.654,-1.941 1.231,-2.79c1.341,-1.972 3.44,-3.283 4.739,-5.296c3.34,-5.175 9.603,-8.817 14.806,-11.683" style="fill:none;stroke:#2d2615;stroke-width:3px;"/><path d="M43.831,-5.49c2.804,1.515 6.989,1.517 9.439,3.6c2.563,2.18 4.699,5.031 6.962,7.495c0.706,0.768 1.396,2.343 2.275,2.904c0.346,0.221 1.192,-0.984 1.334,-1.158c1.18,-1.454 1.656,-3.275 3.089,-4.567c1.144,-1.031 2.59,-1.519 3.826,-2.406c1.154,-0.829 1.859,-2.212 2.975,-3.13c1.567,-1.289 3.716,-1.847 5.411,-2.95" style="fill:none;stroke:#2d2615;stroke-width:3px;"/><path d="M51.333,-7.157c3.576,1.118 6.7,3.798 10.225,5.203c0.681,0.271 1.666,1.927 2.3,1.944c1.425,0.04 2.278,-1.732 3.351,-2.431c1.107,-0.722 2.023,-1.72 3.231,-2.316c1.542,-0.761 3.544,-1.343 4.905,-2.391" style="fill:none;stroke:#2d2615;stroke-width:1px;"/><path d="M97.011,-2.155c4.751,0.843 8.23,2.979 11.481,6.518c0.973,1.059 2.193,2.094 2.816,3.406c0.775,1.632 1.156,3.448 1.191,5.246c0.013,0.687 -0.114,2.061 0.521,2.495c1.019,0.694 3.27,0.335 4.497,0.337c4.442,0.009 8.755,-0.917 13.171,-1.125" style="fill:none;stroke:#2d2615;stroke-width:3px;"/><path d="M32.953,-2.155c-4.751,0.843 -8.23,2.979 -11.481,6.518c-0.973,1.059 -2.193,2.094 -2.816,3.406c-0.775,1.632 -1.156,3.448 -1.191,5.246c-0.013,0.687 0.114,2.061 -0.522,2.495c-1.018,0.694 -3.269,0.335 -4.496,0.337c-4.442,0.009 -8.755,-0.917 -13.171,-1.125" style="fill:none;stroke:#2d2615;stroke-width:3px;"/><path d="M129.687,24.185c-2.97,0.889 -7.247,0.825 -10.336,0.5c-1.738,-0.183 -5.668,-0.976 -7.518,-0.33c-1.179,0.412 -1.006,3.219 -1.133,4.165c-0.224,1.663 -1.588,3.458 -2.673,4.677c-1.766,1.982 -5.318,3.289 -7.742,4.179c-0.972,0.357 -2.766,0.373 -3.4,1.345c-0.14,0.216 1.258,1.164 1.4,1.226c1.954,0.858 4.429,1.569 5.716,3.419c0.888,1.278 2.129,2.239 3.002,3.5c1.21,1.748 2.204,3.602 3.607,5.22c0.618,0.713 0.486,2.239 1.205,2.655c1.447,0.838 4.076,0.449 5.702,0.451c2.165,0.002 4.338,0.055 6.502,0.001c2.576,-0.065 5.068,-0.806 7.668,-0.827" style="fill:none;stroke:#2d2615;stroke-width:3px;"/><path d="M0.277,24.185c2.97,0.889 7.247,0.825 10.336,0.5c1.738,-0.183 5.668,-0.976 7.518,-0.33c1.179,0.412 1.006,3.219 1.133,4.165c0.224,1.663 1.588,3.458 2.673,4.677c1.766,1.982 5.317,3.289 7.742,4.179c0.971,0.357 2.766,0.373 3.399,1.345c0.141,0.216 -1.257,1.164 -1.399,1.226c-1.954,0.858 -4.429,1.569 -5.716,3.419c-0.888,1.278 -2.129,2.239 -3.002,3.5c-1.21,1.748 -2.204,3.602 -3.607,5.22c-0.618,0.713 -0.486,2.239 -1.205,2.655c-1.447,0.838 -4.076,0.449 -5.702,0.451c-2.165,0.002 -4.338,0.055 -6.502,0.001c-2.576,-0.065 -5.068,-0.806 -7.668,-0.827" style="fill:none;stroke:#2d2615;stroke-width:3px;"/><path d="M131.02,29.353l-12.003,-0c-1.159,-0 -3.096,-0.796 -4.033,-0.397c-0.556,0.237 -0.646,1.233 -0.703,1.736c-0.165,1.471 -0.044,2.624 -0.918,3.905c-0.897,1.317 -2.379,2.779 -3.582,3.846c-0.535,0.475 -1.559,0.49 -1.768,1.315c-0.157,0.619 0.482,1.49 0.831,1.934c1.117,1.427 3.186,2.247 4.041,3.806c0.489,0.891 0.991,1.851 1.157,2.872c0.106,0.659 -0.068,1.49 0.604,1.874c1.347,0.77 3.528,0.443 5.038,0.446c4.097,0.009 8.112,-0.386 12.17,-0.479" style="fill:none;stroke:#2d2615;stroke-width:3px;"/><path d="M-1.056,29.353l12.003,-0c1.159,-0 3.096,-0.796 4.033,-0.397c0.556,0.237 0.646,1.233 0.703,1.736c0.165,1.471 0.044,2.624 0.917,3.905c0.898,1.317 2.38,2.779 3.583,3.846c0.535,0.475 1.559,0.49 1.768,1.315c0.157,0.619 -0.482,1.49 -0.831,1.934c-1.117,1.427 -3.186,2.247 -4.041,3.806c-0.489,0.891 -0.991,1.851 -1.157,2.872c-0.106,0.659 0.068,1.49 -0.604,1.874c-1.347,0.77 -3.528,0.443 -5.038,0.446c-4.097,0.009 -8.112,-0.386 -12.17,-0.479" style="fill:none;stroke:#2d2615;stroke-width:3px;"/><path d="M132.521,45.524c-2.781,-0 -5.547,0.164 -8.336,0.166c-1.224,0.001 -2.9,0.245 -4.037,-0.255c-1.193,-0.525 -2.315,-2.332 -3.353,-3.179c-0.47,-0.384 -1.052,-0.535 -1.06,-1.235c-0.011,-0.867 1.554,-2.11 1.98,-2.81c0.423,-0.694 0.771,-2.351 1.555,-2.655c2.353,-0.913 5.38,-0.155 7.759,0.174c1.637,0.227 3.343,0.123 4.992,0.124" style="fill:none;stroke:#2d2615;stroke-width:3px;"/><path d="M-2.557,45.524c2.781,-0 5.547,0.164 8.336,0.166c1.223,0.001 2.9,0.245 4.037,-0.255c1.193,-0.525 2.315,-2.332 3.353,-3.179c0.47,-0.384 1.052,-0.535 1.06,-1.235c0.011,-0.867 -1.554,-2.11 -1.98,-2.81c-0.423,-0.694 -0.771,-2.351 -1.555,-2.655c-2.353,-0.913 -5.38,-0.155 -7.759,0.174c-1.637,0.227 -3.343,0.123 -4.992,0.124" style="fill:none;stroke:#2d2615;stroke-width:3px;"/><path d="M99.012,82.867c2.259,-0 3.558,-1.11 5.375,-2.284c2.091,-1.352 4.168,-2.8 5.75,-4.754c0.834,-1.031 1.098,-2.761 1.545,-3.982c0.468,-1.276 1.257,-2.404 1.684,-3.713c0.403,-1.238 0.614,-2.478 0.733,-3.776c0.038,-0.41 -0.114,-1.22 0.203,-1.535c0.69,-0.686 3.449,-0.291 4.382,-0.293c4.729,-0.006 9.448,-0.161 14.17,-0.167" style="fill:none;stroke:#2d2615;stroke-width:3px;"/><path d="M30.952,82.867c-2.259,-0 -3.558,-1.11 -5.375,-2.284c-2.091,-1.352 -4.168,-2.8 -5.75,-4.754c-0.834,-1.031 -1.098,-2.761 -1.545,-3.982c-0.468,-1.276 -1.257,-2.404 -1.684,-3.713c-0.403,-1.238 -0.614,-2.478 -0.733,-3.776c-0.038,-0.41 0.114,-1.22 -0.203,-1.535c-0.69,-0.686 -3.449,-0.291 -4.382,-0.293c-4.729,-0.006 -9.448,-0.161 -14.17,-0.167" style="fill:none;stroke:#2d2615;stroke-width:3px;"/><path d="M106.347,84.201c1.257,-0.109 2.596,-1.045 3.641,-1.706c3.291,-2.083 5.996,-4.171 7.664,-7.881c0.594,-1.32 1.419,-2.855 1.693,-4.268c0.084,-0.437 -0.08,-1.832 0.22,-2.116c0.648,-0.613 2.144,-0.497 2.953,-0.513c2.289,-0.046 4.549,0.134 6.835,0.142c0.881,0.003 2.417,-0.297 3.227,0.028" style="fill:none;stroke:#2d2615;stroke-width:3px;"/><path d="M23.617,84.201c-1.257,-0.109 -2.596,-1.045 -3.641,-1.706c-3.291,-2.083 -5.996,-4.171 -7.664,-7.881c-0.594,-1.32 -1.419,-2.855 -1.693,-4.268c-0.084,-0.437 0.08,-1.832 -0.22,-2.116c-0.648,-0.613 -2.144,-0.497 -2.953,-0.513c-2.289,-0.046 -4.549,0.134 -6.835,0.142c-0.881,0.003 -2.417,-0.297 -3.227,0.028" style="fill:none;stroke:#2d2615;stroke-width:3px;"/><path d="M99.012,83.2l-0,7.669" style="fill:none;stroke:#2d2615;stroke-width:3px;"/><path d="M30.952,83.2l-0,7.669" style="fill:none;stroke:#2d2615;stroke-width:3px;"/><path d="M106.181,84.034c-0,1.737 0.231,3.811 0.525,5.514" style="fill:none;stroke:#2d2615;stroke-width:3px;"/><path d="M23.783,84.034c0,1.737 -0.231,3.811 -0.525,5.514" style="fill:none;stroke:#2d2615;stroke-width:3px;"/><path d="M40.118,91.387c-0.672,-1.923 -1.019,-6.676 0.421,-8.331c0.882,-1.013 3.452,-1.08 4.702,-1.808c3.078,-1.792 6.278,-4.701 8.671,-7.315c1.086,-1.186 1.318,-2.989 1.779,-4.46c0.497,-1.587 1.468,-3.028 2.238,-4.486c0.529,-1.001 0.594,-2.412 1.85,-2.807c2.565,-0.807 5.431,-0.023 8.054,0.015c0.514,0.007 2.553,-0.264 2.865,0.096c1.193,1.379 0.76,3.668 0.988,5.346c0.505,3.727 2.783,8.535 6.109,10.472c3.083,1.795 5.808,2.377 9.238,3.034c1.073,0.206 3.325,-0.233 4.072,0.714c1.804,2.292 0.383,7.254 0.607,9.951" style="fill:none;stroke:#2d2615;stroke-width:3px;"/><path d="M85.755,93.68c-0,-1.859 0.156,-3.592 0.317,-5.423c0.021,-0.243 0.304,-1.644 0.246,-1.725c-0.632,-0.894 -2.762,-0.698 -3.69,-0.743c-2.933,-0.143 -6.804,-0.717 -9.002,-2.893c-2.445,-2.421 -5.281,-5.887 -5.669,-9.437c-0.151,-1.382 0.278,-5.307 -1.251,-5.831c-0.913,-0.313 -2.926,-0.662 -3.616,0.252c-0.986,1.307 -0.629,3.636 -0.668,5.169c-0.058,2.27 -1.08,4.899 -2.553,6.636c-2.447,2.886 -7.24,3.529 -10.504,5.156c-0.804,0.401 -2.495,0.576 -3.052,1.268c-1.208,1.503 -0.634,4.128 -0.991,5.924" style="fill:none;stroke:#2d2615;stroke-width:3px;"/></g><g><circle cx="298.469" cy="61.816" r="10.289" style="fill:none;stroke:#2d2615;stroke-width:3px;"/><circle cx="298.469" cy="61.816" r="14.561" style="fill:none;stroke:#2d2615;stroke-width:3px;"/><circle cx="353.066" cy="61.816" r="10.289" style="fill:none;stroke:#2d2615;stroke-width:3px;"/><circle cx="353.066" cy="18.888" r="10.289" style="fill:none;stroke:#2d2615;stroke-width:3px;"/><circle cx="298.469" cy="18.888" r="10.289" style="fill:none;stroke:#2d2615;stroke-width:3px;"/><circle cx="298.469" cy="18.888" r="14.561" style="fill:none;stroke:#2d2615;stroke-width:3px;"/><circle cx="353.066" cy="61.816" r="14.561" style="fill:none;stroke:#2d2615;stroke-width:3px;"/><circle cx="353.066" cy="18.888" r="14.561" style="fill:none;stroke:#2d2615;stroke-width:3px;"/><path d="M318.328,55.61c-0,-2.128 -2.286,-4.114 -3.661,-5.511c-0.904,-0.92 -1.539,-2.15 -2.345,-3.155c-1.574,-1.965 -4.254,-4.321 -4.846,-6.901c-0.144,-0.63 1.342,-1.691 1.698,-2.085c1.576,-1.741 3.27,-3.398 4.888,-5.107c1.508,-1.594 3,-4.304 3.9,-6.334c0.264,-0.596 0.332,-1.968 0.709,-2.408c0.624,-0.729 2.153,-0.622 2.992,-0.648c2.608,-0.08 5.225,-0.026 7.835,-0.026c0.711,-0 2.08,-0.466 2.723,-0.135c0.814,0.42 0.917,2.081 1.187,2.843c0.734,2.069 2.05,4.186 3.015,6.164c0.9,1.845 2.466,3.034 3.572,4.703c0.242,0.364 1.01,0.905 1.122,1.303c0.266,0.946 -2.044,2.983 -2.491,3.765c-1.605,2.804 -3.194,6.072 -4.313,9.092c-0.445,1.202 -0.379,3.586 -1.499,4.417c-1.061,0.788 -3.087,0.538 -4.32,0.433c-2.807,-0.239 -5.684,-0.077 -8.499,-0.077" style="fill:none;stroke:#2d2615;stroke-width:3px;"/><path d="M321.495,52.776c-1.521,-2.816 -3.29,-6.034 -5.343,-8.496c-0.572,-0.685 -1.144,-1.496 -1.599,-2.272c-0.087,-0.148 -0.606,-0.605 -0.57,-0.75c0.338,-1.366 2.665,-2.237 3.386,-3.457c1.214,-2.052 2.798,-3.829 3.895,-5.965c0.361,-0.703 0.45,-2.302 1.071,-2.726c1.143,-0.782 3.037,-0.352 4.329,-0.346c0.771,0.004 2.439,-0.322 3.102,0.106c0.764,0.493 0.821,1.958 0.954,2.741c0.313,1.834 1.046,4.134 2.158,5.628c0.36,0.484 1.675,2.005 1.568,2.541c-0.179,0.905 -1.406,1.613 -2.016,2.246c-1.138,1.179 -2.147,2.825 -2.757,4.321c-0.583,1.43 -0.71,3.13 -1.11,4.628c-0.126,0.471 -0.018,1.226 -0.47,1.551c-1.353,0.974 -4.018,0.117 -5.597,0.095" style="fill:none;stroke:#2d2615;stroke-width:3px;"/><path d="M324.663,48.441c-1.738,-0.962 -2.471,-3.317 -3.502,-4.903c-0.171,-0.263 -1.231,-1.193 -1.205,-1.433c0.113,-1.032 2.241,-2.472 2.789,-3.445c0.525,-0.933 1.169,-3.179 2.076,-3.734c0.295,-0.181 1.569,1.43 1.744,1.633c1.784,2.067 0.993,4.503 0.187,6.754c-0.587,1.637 -0.824,3.282 -1.569,4.873" style="fill:none;stroke:#2d2615;stroke-width:3px;"/><path d="M300.282,-2.155c6.849,-0 11.266,5.268 15.324,10.012c1.444,1.687 3.115,3.129 4.35,4.989c1.303,1.964 2.7,4.103 4.425,5.733c0.118,0.112 0.696,-0.835 0.739,-0.897c0.576,-0.817 0.655,-1.941 1.232,-2.79c1.341,-1.972 3.44,-3.283 4.738,-5.296c3.34,-5.175 9.604,-8.817 14.807,-11.683" style="fill:none;stroke:#2d2615;stroke-width:3px;"/><path d="M304.949,-5.49c2.805,1.515 6.99,1.517 9.439,3.6c2.563,2.18 4.699,5.031 6.963,7.495c0.705,0.768 1.396,2.343 2.274,2.904c0.346,0.221 1.192,-0.984 1.334,-1.158c1.181,-1.454 1.657,-3.275 3.09,-4.567c1.144,-1.031 2.589,-1.519 3.826,-2.406c1.153,-0.829 1.859,-2.212 2.975,-3.13c1.566,-1.289 3.716,-1.847 5.41,-2.95" style="fill:none;stroke:#2d2615;stroke-width:3px;"/><path d="M312.451,-7.157c3.577,1.118 6.7,3.798 10.225,5.203c0.682,0.271 1.667,1.927 2.3,1.944c1.426,0.04 2.279,-1.732 3.351,-2.431c1.107,-0.722 2.024,-1.72 3.231,-2.316c1.543,-0.761 3.545,-1.343 4.906,-2.391" style="fill:none;stroke:#2d2615;stroke-width:1px;"/><path d="M358.13,-2.155c4.75,0.843 8.23,2.979 11.481,6.518c0.973,1.059 2.193,2.094 2.816,3.406c0.774,1.632 1.156,3.448 1.19,5.246c0.013,0.687 -0.113,2.061 0.522,2.495c1.019,0.694 3.27,0.335 4.496,0.337c4.443,0.009 8.756,-0.917 13.172,-1.125" style="fill:none;stroke:#2d2615;stroke-width:3px;"/><path d="M294.071,-2.155c-4.75,0.843 -8.229,2.979 -11.481,6.518c-0.972,1.059 -2.193,2.094 -2.815,3.406c-0.775,1.632 -1.157,3.448 -1.191,5.246c-0.013,0.687 0.113,2.061 -0.522,2.495c-1.018,0.694 -3.269,0.335 -4.496,0.337c-4.443,0.009 -8.756,-0.917 -13.171,-1.125" style="fill:none;stroke:#2d2615;stroke-width:3px;"/><path d="M390.805,24.185c-2.969,0.889 -7.246,0.825 -10.336,0.5c-1.737,-0.183 -5.667,-0.976 -7.518,-0.33c-1.178,0.412 -1.005,3.219 -1.132,4.165c-0.224,1.663 -1.589,3.458 -2.674,4.677c-1.766,1.982 -5.317,3.289 -7.741,4.179c-0.972,0.357 -2.766,0.373 -3.4,1.345c-0.14,0.216 1.258,1.164 1.4,1.226c1.953,0.858 4.429,1.569 5.715,3.419c0.888,1.278 2.13,2.239 3.002,3.5c1.21,1.748 2.205,3.602 3.607,5.22c0.618,0.713 0.487,2.239 1.206,2.655c1.447,0.838 4.076,0.449 5.701,0.451c2.165,0.002 4.338,0.055 6.502,0.001c2.577,-0.065 5.069,-0.806 7.669,-0.827" style="fill:none;stroke:#2d2615;stroke-width:3px;"/><path d="M261.396,24.185c2.97,0.889 7.246,0.825 10.336,0.5c1.738,-0.183 5.668,-0.976 7.518,-0.33c1.178,0.412 1.005,3.219 1.133,4.165c0.224,1.663 1.588,3.458 2.673,4.677c1.766,1.982 5.317,3.289 7.742,4.179c0.971,0.357 2.765,0.373 3.399,1.345c0.141,0.216 -1.257,1.164 -1.4,1.226c-1.953,0.858 -4.428,1.569 -5.715,3.419c-0.888,1.278 -2.129,2.239 -3.002,3.5c-1.21,1.748 -2.205,3.602 -3.607,5.22c-0.618,0.713 -0.487,2.239 -1.205,2.655c-1.447,0.838 -4.077,0.449 -5.702,0.451c-2.165,0.002 -4.338,0.055 -6.502,0.001c-2.577,-0.065 -5.068,-0.806 -7.669,-0.827" style="fill:none;stroke:#2d2615;stroke-width:3px;"/><path d="M392.139,29.353l-12.003,-0c-1.159,-0 -3.096,-0.796 -4.034,-0.397c-0.555,0.237 -0.646,1.233 -0.702,1.736c-0.165,1.471 -0.045,2.624 -0.918,3.905c-0.897,1.317 -2.38,2.779 -3.582,3.846c-0.535,0.475 -1.559,0.49 -1.768,1.315c-0.157,0.619 0.482,1.49 0.831,1.934c1.117,1.427 3.186,2.247 4.041,3.806c0.489,0.891 0.991,1.851 1.156,2.872c0.107,0.659 -0.067,1.49 0.605,1.874c1.346,0.77 3.528,0.443 5.038,0.446c4.097,0.009 8.112,-0.386 12.17,-0.479" style="fill:none;stroke:#2d2615;stroke-width:3px;"/><path d="M260.062,29.353l12.003,-0c1.16,-0 3.096,-0.796 4.034,-0.397c0.555,0.237 0.646,1.233 0.703,1.736c0.165,1.471 0.044,2.624 0.917,3.905c0.898,1.317 2.38,2.779 3.583,3.846c0.535,0.475 1.558,0.49 1.768,1.315c0.157,0.619 -0.483,1.49 -0.831,1.934c-1.118,1.427 -3.186,2.247 -4.042,3.806c-0.489,0.891 -0.991,1.851 -1.156,2.872c-0.107,0.659 0.068,1.49 -0.605,1.874c-1.346,0.77 -3.527,0.443 -5.037,0.446c-4.098,0.009 -8.112,-0.386 -12.171,-0.479" style="fill:none;stroke:#2d2615;stroke-width:3px;"/><path d="M393.639,45.524c-2.781,-0 -5.547,0.164 -8.335,0.166c-1.224,0.001 -2.9,0.245 -4.038,-0.255c-1.193,-0.525 -2.315,-2.332 -3.353,-3.179c-0.469,-0.384 -1.051,-0.535 -1.06,-1.235c-0.011,-0.867 1.554,-2.11 1.981,-2.81c0.423,-0.694 0.771,-2.351 1.554,-2.655c2.353,-0.913 5.38,-0.155 7.759,0.174c1.637,0.227 3.344,0.123 4.992,0.124" style="fill:none;stroke:#2d2615;stroke-width:3px;"/><path d="M258.562,45.524c2.781,-0 5.547,0.164 8.335,0.166c1.224,0.001 2.901,0.245 4.038,-0.255c1.193,-0.525 2.315,-2.332 3.353,-3.179c0.47,-0.384 1.051,-0.535 1.06,-1.235c0.011,-0.867 -1.554,-2.11 -1.981,-2.81c-0.422,-0.694 -0.771,-2.351 -1.554,-2.655c-2.353,-0.913 -5.38,-0.155 -7.759,0.174c-1.637,0.227 -3.344,0.123 -4.992,0.124" style="fill:none;stroke:#2d2615;stroke-width:3px;"/><path d="M360.131,82.867c2.259,-0 3.558,-1.11 5.375,-2.284c2.09,-1.352 4.168,-2.8 5.749,-4.754c0.835,-1.031 1.098,-2.761 1.546,-3.982c0.468,-1.276 1.257,-2.404 1.684,-3.713c0.403,-1.238 0.613,-2.478 0.733,-3.776c0.038,-0.41 -0.114,-1.22 0.203,-1.535c0.69,-0.686 3.448,-0.291 4.381,-0.293c4.73,-0.006 9.448,-0.161 14.171,-0.167" style="fill:none;stroke:#2d2615;stroke-width:3px;"/><path d="M292.071,82.867c-2.259,-0 -3.559,-1.11 -5.375,-2.284c-2.091,-1.352 -4.169,-2.8 -5.75,-4.754c-0.835,-1.031 -1.098,-2.761 -1.546,-3.982c-0.468,-1.276 -1.257,-2.404 -1.683,-3.713c-0.404,-1.238 -0.614,-2.478 -0.734,-3.776c-0.037,-0.41 0.114,-1.22 -0.202,-1.535c-0.69,-0.686 -3.449,-0.291 -4.382,-0.293c-4.73,-0.006 -9.448,-0.161 -14.171,-0.167" style="fill:none;stroke:#2d2615;stroke-width:3px;"/><path d="M367.466,84.201c1.256,-0.109 2.596,-1.045 3.64,-1.706c3.291,-2.083 5.997,-4.171 7.665,-7.881c0.593,-1.32 1.418,-2.855 1.692,-4.268c0.085,-0.437 -0.08,-1.832 0.221,-2.116c0.648,-0.613 2.144,-0.497 2.953,-0.513c2.289,-0.046 4.548,0.134 6.835,0.142c0.881,0.003 2.416,-0.297 3.227,0.028" style="fill:none;stroke:#2d2615;stroke-width:3px;"/><path d="M284.735,84.201c-1.256,-0.109 -2.596,-1.045 -3.64,-1.706c-3.291,-2.083 -5.997,-4.171 -7.665,-7.881c-0.593,-1.32 -1.418,-2.855 -1.692,-4.268c-0.085,-0.437 0.08,-1.832 -0.221,-2.116c-0.647,-0.613 -2.144,-0.497 -2.953,-0.513c-2.289,-0.046 -4.548,0.134 -6.835,0.142c-0.881,0.003 -2.416,-0.297 -3.227,0.028" style="fill:none;stroke:#2d2615;stroke-width:3px;"/><path d="M360.131,83.2l-0,7.669" style="fill:none;stroke:#2d2615;stroke-width:3px;"/><path d="M292.071,83.2l-0,7.669" style="fill:none;stroke:#2d2615;stroke-width:3px;"/><path d="M367.299,84.034c0,1.737 0.231,3.811 0.525,5.514" style="fill:none;stroke:#2d2615;stroke-width:3px;"/><path d="M284.902,84.034c0,1.737 -0.231,3.811 -0.525,5.514" style="fill:none;stroke:#2d2615;stroke-width:3px;"/><path d="M301.236,91.387c-0.672,-1.923 -1.018,-6.676 0.422,-8.331c0.881,-1.013 3.452,-1.08 4.701,-1.808c3.079,-1.792 6.279,-4.701 8.671,-7.315c1.087,-1.186 1.319,-2.989 1.78,-4.46c0.497,-1.587 1.467,-3.028 2.237,-4.486c0.529,-1.001 0.594,-2.412 1.851,-2.807c2.565,-0.807 5.431,-0.023 8.054,0.015c0.513,0.007 2.552,-0.264 2.864,0.096c1.194,1.379 0.761,3.668 0.988,5.346c0.506,3.727 2.784,8.535 6.11,10.472c3.083,1.795 5.808,2.377 9.238,3.034c1.073,0.206 3.325,-0.233 4.071,0.714c1.805,2.292 0.384,7.254 0.607,9.951" style="fill:none;stroke:#2d2615;stroke-width:3px;"/><path d="M346.873,93.68c0,-1.859 0.156,-3.592 0.317,-5.423c0.022,-0.243 0.305,-1.644 0.247,-1.725c-0.632,-0.894 -2.762,-0.698 -3.69,-0.743c-2.933,-0.143 -6.804,-0.717 -9.002,-2.893c-2.446,-2.421 -5.281,-5.887 -5.67,-9.437c-0.151,-1.382 0.279,-5.307 -1.251,-5.831c-0.912,-0.313 -2.926,-0.662 -3.615,0.252c-0.986,1.307 -0.629,3.636 -0.668,5.169c-0.058,2.27 -1.08,4.899 -2.553,6.636c-2.447,2.886 -7.241,3.529 -10.504,5.156c-0.805,0.401 -2.496,0.576 -3.052,1.268c-1.209,1.503 -0.634,4.128 -0.991,5.924" style="fill:none;stroke:#2d2615;stroke-width:3px;"/></g><g><circle cx="560.162" cy="61.816" r="10.289" style="fill:none;stroke:#2d2615;stroke-width:3px;"/><circle cx="560.162" cy="61.816" r="14.561" style="fill:none;stroke:#2d2615;stroke-width:3px;"/><circle cx="614.759" cy="61.816" r="10.289" style="fill:none;stroke:#2d2615;stroke-width:3px;"/><circle cx="614.759" cy="18.888" r="10.289" style="fill:none;stroke:#2d2615;stroke-width:3px;"/><circle cx="560.162" cy="18.888" r="10.289" style="fill:none;stroke:#2d2615;stroke-width:3px;"/><circle cx="560.162" cy="18.888" r="14.561" style="fill:none;stroke:#2d2615;stroke-width:3px;"/><circle cx="614.759" cy="61.816" r="14.561" style="fill:none;stroke:#2d2615;stroke-width:3px;"/><circle cx="614.759" cy="18.888" r="14.561" style="fill:none;stroke:#2d2615;stroke-width:3px;"/><path d="M580.021,55.61c0,-2.128 -2.286,-4.114 -3.66,-5.511c-0.905,-0.92 -1.54,-2.15 -2.346,-3.155c-1.574,-1.965 -4.254,-4.321 -4.846,-6.901c-0.144,-0.63 1.342,-1.691 1.698,-2.085c1.576,-1.741 3.27,-3.398 4.888,-5.107c1.508,-1.594 3,-4.304 3.9,-6.334c0.264,-0.596 0.332,-1.968 0.709,-2.408c0.624,-0.729 2.153,-0.622 2.992,-0.648c2.608,-0.08 5.225,-0.026 7.835,-0.026c0.711,-0 2.08,-0.466 2.723,-0.135c0.814,0.42 0.917,2.081 1.187,2.843c0.734,2.069 2.05,4.186 3.015,6.164c0.9,1.845 2.466,3.034 3.573,4.703c0.241,0.364 1.009,0.905 1.121,1.303c0.266,0.946 -2.044,2.983 -2.491,3.765c-1.605,2.804 -3.194,6.072 -4.313,9.092c-0.445,1.202 -0.379,3.586 -1.499,4.417c-1.061,0.788 -3.087,0.538 -4.32,0.433c-2.807,-0.239 -5.683,-0.077 -8.499,-0.077" style="fill:none;stroke:#2d2615;stroke-width:3px;"/><path d="M583.189,52.776c-1.522,-2.816 -3.291,-6.034 -5.344,-8.496c-0.572,-0.685 -1.144,-1.496 -1.599,-2.272c-0.087,-0.148 -0.606,-0.605 -0.57,-0.75c0.338,-1.366 2.665,-2.237 3.386,-3.457c1.214,-2.052 2.798,-3.829 3.895,-5.965c0.361,-0.703 0.45,-2.302 1.071,-2.726c1.143,-0.782 3.037,-0.352 4.329,-0.346c0.771,0.004 2.439,-0.322 3.102,0.106c0.764,0.493 0.821,1.958 0.955,2.741c0.312,1.834 1.045,4.134 2.157,5.628c0.361,0.484 1.675,2.005 1.569,2.541c-0.18,0.905 -1.407,1.613 -2.017,2.246c-1.138,1.179 -2.147,2.825 -2.757,4.321c-0.583,1.43 -0.71,3.13 -1.11,4.628c-0.126,0.471 -0.018,1.226 -0.47,1.551c-1.353,0.974 -4.018,0.117 -5.597,0.095" style="fill:none;stroke:#2d2615;stroke-width:3px;"/><path d="M586.356,48.441c-1.738,-0.962 -2.471,-3.317 -3.502,-4.903c-0.171,-0.263 -1.231,-1.193 -1.205,-1.433c0.113,-1.032 2.241,-2.472 2.789,-3.445c0.526,-0.933 1.169,-3.179 2.076,-3.734c0.295,-0.181 1.569,1.43 1.744,1.633c1.785,2.067 0.993,4.503 0.187,6.754c-0.587,1.637 -0.824,3.282 -1.569,4.873" style="fill:none;stroke:#2d2615;stroke-width:3px;"/><path d="M561.975,-2.155c6.849,-0 11.266,5.268 15.324,10.012c1.444,1.687 3.115,3.129 4.35,4.989c1.303,1.964 2.7,4.103 4.425,5.733c0.118,0.112 0.696,-0.835 0.739,-0.897c0.577,-0.817 0.655,-1.941 1.232,-2.79c1.341,-1.972 3.44,-3.283 4.739,-5.296c3.339,-5.175 9.603,-8.817 14.806,-11.683" style="fill:none;stroke:#2d2615;stroke-width:3px;"/><path d="M566.643,-5.49c2.804,1.515 6.989,1.517 9.438,3.6c2.563,2.18 4.699,5.031 6.963,7.495c0.705,0.768 1.396,2.343 2.274,2.904c0.346,0.221 1.192,-0.984 1.334,-1.158c1.181,-1.454 1.657,-3.275 3.09,-4.567c1.144,-1.031 2.59,-1.519 3.826,-2.406c1.154,-0.829 1.859,-2.212 2.975,-3.13c1.567,-1.289 3.716,-1.847 5.41,-2.95" style="fill:none;stroke:#2d2615;stroke-width:3px;"/><path d="M574.145,-7.157c3.576,1.118 6.7,3.798 10.224,5.203c0.682,0.271 1.667,1.927 2.3,1.944c1.426,0.04 2.279,-1.732 3.351,-2.431c1.107,-0.722 2.024,-1.72 3.232,-2.316c1.542,-0.761 3.544,-1.343 4.905,-2.391" style="fill:none;stroke:#2d2615;stroke-width:1px;"/><path d="M619.823,-2.155c4.751,0.843 8.23,2.979 11.481,6.518c0.973,1.059 2.193,2.094 2.816,3.406c0.774,1.632 1.156,3.448 1.19,5.246c0.014,0.687 -0.113,2.061 0.522,2.495c1.019,0.694 3.27,0.335 4.497,0.337c4.442,0.009 8.755,-0.917 13.171,-1.125" style="fill:none;stroke:#2d2615;stroke-width:3px;"/><path d="M555.764,-2.155c-4.75,0.843 -8.229,2.979 -11.481,6.518c-0.972,1.059 -2.193,2.094 -2.815,3.406c-0.775,1.632 -1.157,3.448 -1.191,5.246c-0.013,0.687 0.113,2.061 -0.522,2.495c-1.018,0.694 -3.269,0.335 -4.496,0.337c-4.443,0.009 -8.756,-0.917 -13.171,-1.125" style="fill:none;stroke:#2d2615;stroke-width:3px;"/><path d="M652.498,24.185c-2.969,0.889 -7.246,0.825 -10.336,0.5c-1.737,-0.183 -5.667,-0.976 -7.518,-0.33c-1.178,0.412 -1.005,3.219 -1.132,4.165c-0.224,1.663 -1.589,3.458 -2.674,4.677c-1.765,1.982 -5.317,3.289 -7.741,4.179c-0.972,0.357 -2.766,0.373 -3.4,1.345c-0.14,0.216 1.258,1.164 1.4,1.226c1.953,0.858 4.429,1.569 5.715,3.419c0.889,1.278 2.13,2.239 3.002,3.5c1.211,1.748 2.205,3.602 3.608,5.22c0.617,0.713 0.486,2.239 1.205,2.655c1.447,0.838 4.076,0.449 5.702,0.451c2.164,0.002 4.337,0.055 6.501,0.001c2.577,-0.065 5.069,-0.806 7.669,-0.827" style="fill:none;stroke:#2d2615;stroke-width:3px;"/><path d="M523.089,24.185c2.97,0.889 7.246,0.825 10.336,0.5c1.738,-0.183 5.668,-0.976 7.518,-0.33c1.178,0.412 1.006,3.219 1.133,4.165c0.224,1.663 1.588,3.458 2.673,4.677c1.766,1.982 5.317,3.289 7.742,4.179c0.971,0.357 2.766,0.373 3.399,1.345c0.141,0.216 -1.257,1.164 -1.4,1.226c-1.953,0.858 -4.428,1.569 -5.715,3.419c-0.888,1.278 -2.129,2.239 -3.002,3.5c-1.21,1.748 -2.205,3.602 -3.607,5.22c-0.618,0.713 -0.486,2.239 -1.205,2.655c-1.447,0.838 -4.076,0.449 -5.702,0.451c-2.165,0.002 -4.338,0.055 -6.502,0.001c-2.577,-0.065 -5.068,-0.806 -7.669,-0.827" style="fill:none;stroke:#2d2615;stroke-width:3px;"/><path d="M653.832,29.353l-12.003,-0c-1.159,-0 -3.096,-0.796 -4.033,-0.397c-0.556,0.237 -0.647,1.233 -0.703,1.736c-0.165,1.471 -0.045,2.624 -0.918,3.905c-0.897,1.317 -2.38,2.779 -3.582,3.846c-0.535,0.475 -1.559,0.49 -1.768,1.315c-0.157,0.619 0.482,1.49 0.831,1.934c1.117,1.427 3.186,2.247 4.041,3.806c0.489,0.891 0.991,1.851 1.156,2.872c0.107,0.659 -0.067,1.49 0.605,1.874c1.346,0.77 3.528,0.443 5.038,0.446c4.097,0.009 8.112,-0.386 12.17,-0.479" style="fill:none;stroke:#2d2615;stroke-width:3px;"/><path d="M521.755,29.353l12.003,-0c1.16,-0 3.096,-0.796 4.034,-0.397c0.556,0.237 0.646,1.233 0.703,1.736c0.165,1.471 0.044,2.624 0.917,3.905c0.898,1.317 2.38,2.779 3.583,3.846c0.535,0.475 1.558,0.49 1.768,1.315c0.157,0.619 -0.483,1.49 -0.831,1.934c-1.117,1.427 -3.186,2.247 -4.042,3.806c-0.489,0.891 -0.991,1.851 -1.156,2.872c-0.107,0.659 0.068,1.49 -0.605,1.874c-1.346,0.77 -3.527,0.443 -5.037,0.446c-4.097,0.009 -8.112,-0.386 -12.17,-0.479" style="fill:none;stroke:#2d2615;stroke-width:3px;"/><path d="M655.333,45.524c-2.782,-0 -5.547,0.164 -8.336,0.166c-1.224,0.001 -2.9,0.245 -4.038,-0.255c-1.193,-0.525 -2.315,-2.332 -3.353,-3.179c-0.469,-0.384 -1.051,-0.535 -1.06,-1.235c-0.01,-0.867 1.554,-2.11 1.981,-2.81c0.423,-0.694 0.771,-2.351 1.555,-2.655c2.352,-0.913 5.379,-0.155 7.758,0.174c1.637,0.227 3.344,0.123 4.992,0.124" style="fill:none;stroke:#2d2615;stroke-width:3px;"/><path d="M520.255,45.524c2.781,-0 5.547,0.164 8.335,0.166c1.224,0.001 2.901,0.245 4.038,-0.255c1.193,-0.525 2.315,-2.332 3.353,-3.179c0.47,-0.384 1.051,-0.535 1.06,-1.235c0.011,-0.867 -1.554,-2.11 -1.98,-2.81c-0.423,-0.694 -0.772,-2.351 -1.555,-2.655c-2.353,-0.913 -5.38,-0.155 -7.759,0.174c-1.637,0.227 -3.343,0.123 -4.992,0.124" style="fill:none;stroke:#2d2615;stroke-width:3px;"/><path d="M621.824,82.867c2.259,-0 3.558,-1.11 5.375,-2.284c2.091,-1.352 4.168,-2.8 5.749,-4.754c0.835,-1.031 1.098,-2.761 1.546,-3.982c0.468,-1.276 1.257,-2.404 1.684,-3.713c0.403,-1.238 0.613,-2.478 0.733,-3.776c0.038,-0.41 -0.114,-1.22 0.203,-1.535c0.69,-0.686 3.449,-0.291 4.382,-0.293c4.729,-0.006 9.447,-0.161 14.17,-0.167" style="fill:none;stroke:#2d2615;stroke-width:3px;"/><path d="M553.764,82.867c-2.259,-0 -3.559,-1.11 -5.375,-2.284c-2.091,-1.352 -4.169,-2.8 -5.75,-4.754c-0.834,-1.031 -1.098,-2.761 -1.546,-3.982c-0.467,-1.276 -1.257,-2.404 -1.683,-3.713c-0.404,-1.238 -0.614,-2.478 -0.733,-3.776c-0.038,-0.41 0.113,-1.22 -0.203,-1.535c-0.69,-0.686 -3.449,-0.291 -4.382,-0.293c-4.73,-0.006 -9.448,-0.161 -14.17,-0.167" style="fill:none;stroke:#2d2615;stroke-width:3px;"/><path d="M629.159,84.201c1.257,-0.109 2.596,-1.045 3.64,-1.706c3.291,-2.083 5.997,-4.171 7.665,-7.881c0.593,-1.32 1.419,-2.855 1.692,-4.268c0.085,-0.437 -0.079,-1.832 0.221,-2.116c0.648,-0.613 2.144,-0.497 2.953,-0.513c2.289,-0.046 4.549,0.134 6.835,0.142c0.881,0.003 2.416,-0.297 3.227,0.028" style="fill:none;stroke:#2d2615;stroke-width:3px;"/><path d="M546.428,84.201c-1.256,-0.109 -2.596,-1.045 -3.64,-1.706c-3.291,-2.083 -5.996,-4.171 -7.665,-7.881c-0.593,-1.32 -1.418,-2.855 -1.692,-4.268c-0.084,-0.437 0.08,-1.832 -0.22,-2.116c-0.648,-0.613 -2.145,-0.497 -2.954,-0.513c-2.289,-0.046 -4.548,0.134 -6.835,0.142c-0.881,0.003 -2.416,-0.297 -3.227,0.028" style="fill:none;stroke:#2d2615;stroke-width:3px;"/><path d="M621.824,83.2l-0,7.669" style="fill:none;stroke:#2d2615;stroke-width:3px;"/><path d="M553.764,83.2l-0,7.669" style="fill:none;stroke:#2d2615;stroke-width:3px;"/><path d="M628.992,84.034c0,1.737 0.232,3.811 0.525,5.514" style="fill:none;stroke:#2d2615;stroke-width:3px;"/><path d="M546.595,84.034c0,1.737 -0.231,3.811 -0.525,5.514" style="fill:none;stroke:#2d2615;stroke-width:3px;"/><path d="M562.929,91.387c-0.672,-1.923 -1.018,-6.676 0.422,-8.331c0.882,-1.013 3.452,-1.08 4.701,-1.808c3.079,-1.792 6.279,-4.701 8.671,-7.315c1.087,-1.186 1.319,-2.989 1.78,-4.46c0.497,-1.587 1.467,-3.028 2.237,-4.486c0.53,-1.001 0.594,-2.412 1.851,-2.807c2.565,-0.807 5.431,-0.023 8.054,0.015c0.513,0.007 2.553,-0.264 2.864,0.096c1.194,1.379 0.761,3.668 0.988,5.346c0.506,3.727 2.784,8.535 6.11,10.472c3.083,1.795 5.808,2.377 9.238,3.034c1.073,0.206 3.325,-0.233 4.071,0.714c1.805,2.292 0.384,7.254 0.608,9.951" style="fill:none;stroke:#2d2615;stroke-width:3px;"/><path d="M608.566,93.68c0,-1.859 0.157,-3.592 0.318,-5.423c0.021,-0.243 0.304,-1.644 0.246,-1.725c-0.632,-0.894 -2.762,-0.698 -3.69,-0.743c-2.933,-0.143 -6.804,-0.717 -9.002,-2.893c-2.446,-2.421 -5.281,-5.887 -5.669,-9.437c-0.152,-1.382 0.278,-5.307 -1.252,-5.831c-0.912,-0.313 -2.926,-0.662 -3.615,0.252c-0.986,1.307 -0.629,3.636 -0.668,5.169c-0.058,2.27 -1.08,4.899 -2.553,6.636c-2.447,2.886 -7.24,3.529 -10.504,5.156c-0.805,0.401 -2.496,0.576 -3.052,1.268c-1.208,1.503 -0.634,4.128 -0.991,5.924" style="fill:none;stroke:#2d2615;stroke-width:3px;"/></g><g><circle cx="167.909" cy="61.816" r="10.289" style="fill:none;stroke:#2d2615;stroke-width:3px;"/><circle cx="167.909" cy="61.816" r="14.561" style="fill:none;stroke:#2d2615;stroke-width:3px;"/><circle cx="222.507" cy="61.816" r="10.289" style="fill:none;stroke:#2d2615;stroke-width:3px;"/><circle cx="222.507" cy="18.888" r="10.289" style="fill:none;stroke:#2d2615;stroke-width:3px;"/><circle cx="167.909" cy="18.888" r="10.289" style="fill:none;stroke:#2d2615;stroke-width:3px;"/><circle cx="167.909" cy="18.888" r="14.561" style="fill:none;stroke:#2d2615;stroke-width:3px;"/><circle cx="222.507" cy="61.816" r="14.561" style="fill:none;stroke:#2d2615;stroke-width:3px;"/><circle cx="222.507" cy="18.888" r="14.561" style="fill:none;stroke:#2d2615;stroke-width:3px;"/><path d="M187.769,55.61c-0,-2.128 -2.286,-4.114 -3.661,-5.511c-0.905,-0.92 -1.539,-2.15 -2.345,-3.155c-1.575,-1.965 -4.255,-4.321 -4.846,-6.901c-0.145,-0.63 1.341,-1.691 1.698,-2.085c1.576,-1.741 3.27,-3.398 4.888,-5.107c1.507,-1.594 3,-4.304 3.899,-6.334c0.265,-0.596 0.333,-1.968 0.71,-2.408c0.624,-0.729 2.152,-0.622 2.991,-0.648c2.609,-0.08 5.226,-0.026 7.835,-0.026c0.712,-0 2.081,-0.466 2.724,-0.135c0.814,0.42 0.917,2.081 1.187,2.843c0.733,2.069 2.049,4.186 3.014,6.164c0.9,1.845 2.467,3.034 3.573,4.703c0.241,0.364 1.009,0.905 1.121,1.303c0.267,0.946 -2.043,2.983 -2.49,3.765c-1.605,2.804 -3.195,6.072 -4.313,9.092c-0.445,1.202 -0.38,3.586 -1.499,4.417c-1.062,0.788 -3.087,0.538 -4.321,0.433c-2.807,-0.239 -5.683,-0.077 -8.498,-0.077" style="fill:none;stroke:#2d2615;stroke-width:3px;"/><path d="M190.936,52.776c-1.521,-2.816 -3.291,-6.034 -5.344,-8.496c-0.571,-0.685 -1.144,-1.496 -1.598,-2.272c-0.087,-0.148 -0.607,-0.605 -0.571,-0.75c0.338,-1.366 2.665,-2.237 3.387,-3.457c1.214,-2.052 2.798,-3.829 3.895,-5.965c0.361,-0.703 0.45,-2.302 1.07,-2.726c1.144,-0.782 3.037,-0.352 4.329,-0.346c0.771,0.004 2.44,-0.322 3.103,0.106c0.763,0.493 0.821,1.958 0.954,2.741c0.313,1.834 1.045,4.134 2.158,5.628c0.36,0.484 1.675,2.005 1.568,2.541c-0.18,0.905 -1.407,1.613 -2.017,2.246c-1.138,1.179 -2.146,2.825 -2.757,4.321c-0.583,1.43 -0.709,3.13 -1.11,4.628c-0.126,0.471 -0.017,1.226 -0.469,1.551c-1.354,0.974 -4.018,0.117 -5.598,0.095" style="fill:none;stroke:#2d2615;stroke-width:3px;"/><path d="M194.104,48.441c-1.739,-0.962 -2.471,-3.317 -3.503,-4.903c-0.17,-0.263 -1.23,-1.193 -1.204,-1.433c0.113,-1.032 2.24,-2.472 2.789,-3.445c0.525,-0.933 1.169,-3.179 2.076,-3.734c0.295,-0.181 1.569,1.43 1.744,1.633c1.784,2.067 0.993,4.503 0.186,6.754c-0.586,1.637 -0.823,3.282 -1.568,4.873" style="fill:none;stroke:#2d2615;stroke-width:3px;"/><path d="M169.722,-2.155c6.849,-0 11.266,5.268 15.325,10.012c1.443,1.687 3.115,3.129 4.35,4.989c1.303,1.964 2.699,4.103 4.424,5.733c0.119,0.112 0.697,-0.835 0.74,-0.897c0.576,-0.817 0.654,-1.941 1.232,-2.79c1.341,-1.972 3.44,-3.283 4.738,-5.296c3.34,-5.175 9.604,-8.817 14.807,-11.683" style="fill:none;stroke:#2d2615;stroke-width:3px;"/><path d="M174.39,-5.49c2.804,1.515 6.99,1.517 9.439,3.6c2.563,2.18 4.699,5.031 6.962,7.495c0.706,0.768 1.396,2.343 2.275,2.904c0.346,0.221 1.192,-0.984 1.334,-1.158c1.181,-1.454 1.657,-3.275 3.09,-4.567c1.143,-1.031 2.589,-1.519 3.825,-2.406c1.154,-0.829 1.86,-2.212 2.975,-3.13c1.567,-1.289 3.717,-1.847 5.411,-2.95" style="fill:none;stroke:#2d2615;stroke-width:3px;"/><path d="M181.892,-7.157c3.577,1.118 6.7,3.798 10.225,5.203c0.681,0.271 1.667,1.927 2.3,1.944c1.426,0.04 2.279,-1.732 3.351,-2.431c1.107,-0.722 2.023,-1.72 3.231,-2.316c1.543,-0.761 3.544,-1.343 4.906,-2.391" style="fill:none;stroke:#2d2615;stroke-width:1px;"/><path d="M227.571,-2.155c4.75,0.843 8.229,2.979 11.481,6.518c0.972,1.059 2.193,2.094 2.815,3.406c0.775,1.632 1.157,3.448 1.191,5.246c0.013,0.687 -0.113,2.061 0.522,2.495c1.018,0.694 3.269,0.335 4.496,0.337c4.443,0.009 8.756,-0.917 13.171,-1.125" style="fill:none;stroke:#2d2615;stroke-width:3px;"/><path d="M163.512,-2.155c-4.75,0.843 -8.23,2.979 -11.481,6.518c-0.973,1.059 -2.193,2.094 -2.816,3.406c-0.774,1.632 -1.156,3.448 -1.19,5.246c-0.013,0.687 0.113,2.061 -0.522,2.495c-1.019,0.694 -3.27,0.335 -4.497,0.337c-4.442,0.009 -8.755,-0.917 -13.171,-1.125" style="fill:none;stroke:#2d2615;stroke-width:3px;"/><path d="M260.246,24.185c-2.97,0.889 -7.246,0.825 -10.336,0.5c-1.738,-0.183 -5.668,-0.976 -7.518,-0.33c-1.178,0.412 -1.006,3.219 -1.133,4.165c-0.224,1.663 -1.588,3.458 -2.673,4.677c-1.766,1.982 -5.317,3.289 -7.742,4.179c-0.971,0.357 -2.766,0.373 -3.399,1.345c-0.141,0.216 1.257,1.164 1.4,1.226c1.953,0.858 4.428,1.569 5.715,3.419c0.888,1.278 2.129,2.239 3.002,3.5c1.21,1.748 2.205,3.602 3.607,5.22c0.618,0.713 0.486,2.239 1.205,2.655c1.447,0.838 4.077,0.449 5.702,0.451c2.165,0.002 4.338,0.055 6.502,0.001c2.577,-0.065 5.068,-0.806 7.669,-0.827" style="fill:none;stroke:#2d2615;stroke-width:3px;"/><path d="M130.837,24.185c2.969,0.889 7.246,0.825 10.336,0.5c1.737,-0.183 5.667,-0.976 7.518,-0.33c1.178,0.412 1.005,3.219 1.132,4.165c0.224,1.663 1.589,3.458 2.674,4.677c1.765,1.982 5.317,3.289 7.741,4.179c0.972,0.357 2.766,0.373 3.4,1.345c0.14,0.216 -1.258,1.164 -1.4,1.226c-1.953,0.858 -4.429,1.569 -5.715,3.419c-0.888,1.278 -2.13,2.239 -3.002,3.5c-1.211,1.748 -2.205,3.602 -3.608,5.22c-0.617,0.713 -0.486,2.239 -1.205,2.655c-1.447,0.838 -4.076,0.449 -5.702,0.451c-2.164,0.002 -4.337,0.055 -6.501,0.001c-2.577,-0.065 -5.069,-0.806 -7.669,-0.827" style="fill:none;stroke:#2d2615;stroke-width:3px;"/><path d="M261.58,29.353l-12.003,-0c-1.16,-0 -3.096,-0.796 -4.034,-0.397c-0.556,0.237 -0.646,1.233 -0.703,1.736c-0.165,1.471 -0.044,2.624 -0.917,3.905c-0.898,1.317 -2.38,2.779 -3.583,3.846c-0.535,0.475 -1.558,0.49 -1.768,1.315c-0.157,0.619 0.483,1.49 0.831,1.934c1.118,1.427 3.186,2.247 4.042,3.806c0.489,0.891 0.991,1.851 1.156,2.872c0.107,0.659 -0.068,1.49 0.605,1.874c1.346,0.77 3.527,0.443 5.037,0.446c4.097,0.009 8.112,-0.386 12.17,-0.479" style="fill:none;stroke:#2d2615;stroke-width:3px;"/><path d="M129.503,29.353l12.003,-0c1.159,-0 3.096,-0.796 4.033,-0.397c0.556,0.237 0.647,1.233 0.703,1.736c0.165,1.471 0.045,2.624 0.918,3.905c0.897,1.317 2.38,2.779 3.582,3.846c0.535,0.475 1.559,0.49 1.768,1.315c0.157,0.619 -0.482,1.49 -0.831,1.934c-1.117,1.427 -3.186,2.247 -4.041,3.806c-0.489,0.891 -0.991,1.851 -1.156,2.872c-0.107,0.659 0.067,1.49 -0.605,1.874c-1.346,0.77 -3.528,0.443 -5.038,0.446c-4.097,0.009 -8.112,-0.386 -12.17,-0.479" style="fill:none;stroke:#2d2615;stroke-width:3px;"/><path d="M263.08,45.524c-2.781,-0 -5.547,0.164 -8.335,0.166c-1.224,0.001 -2.901,0.245 -4.038,-0.255c-1.193,-0.525 -2.315,-2.332 -3.353,-3.179c-0.47,-0.384 -1.051,-0.535 -1.06,-1.235c-0.011,-0.867 1.554,-2.11 1.98,-2.81c0.423,-0.694 0.772,-2.351 1.555,-2.655c2.353,-0.913 5.38,-0.155 7.759,0.174c1.637,0.227 3.343,0.123 4.992,0.124" style="fill:none;stroke:#2d2615;stroke-width:3px;"/><path d="M128.003,45.524c2.781,-0 5.547,0.164 8.335,0.166c1.224,0.001 2.9,0.245 4.038,-0.255c1.193,-0.525 2.315,-2.332 3.353,-3.179c0.469,-0.384 1.051,-0.535 1.06,-1.235c0.01,-0.867 -1.554,-2.11 -1.981,-2.81c-0.423,-0.694 -0.771,-2.351 -1.555,-2.655c-2.352,-0.913 -5.379,-0.155 -7.758,0.174c-1.637,0.227 -3.344,0.123 -4.992,0.124" style="fill:none;stroke:#2d2615;stroke-width:3px;"/><path d="M229.571,82.867c2.259,-0 3.559,-1.11 5.375,-2.284c2.091,-1.352 4.169,-2.8 5.75,-4.754c0.834,-1.031 1.098,-2.761 1.546,-3.982c0.468,-1.276 1.257,-2.404 1.683,-3.713c0.404,-1.238 0.614,-2.478 0.734,-3.776c0.037,-0.41 -0.114,-1.22 0.202,-1.535c0.69,-0.686 3.449,-0.291 4.382,-0.293c4.73,-0.006 9.448,-0.161 14.171,-0.167" style="fill:none;stroke:#2d2615;stroke-width:3px;"/><path d="M161.511,82.867c-2.259,-0 -3.558,-1.11 -5.375,-2.284c-2.09,-1.352 -4.168,-2.8 -5.749,-4.754c-0.835,-1.031 -1.098,-2.761 -1.546,-3.982c-0.468,-1.276 -1.257,-2.404 -1.684,-3.713c-0.403,-1.238 -0.613,-2.478 -0.733,-3.776c-0.038,-0.41 0.114,-1.22 -0.203,-1.535c-0.69,-0.686 -3.449,-0.291 -4.382,-0.293c-4.729,-0.006 -9.447,-0.161 -14.17,-0.167" style="fill:none;stroke:#2d2615;stroke-width:3px;"/><path d="M236.907,84.201c1.256,-0.109 2.596,-1.045 3.64,-1.706c3.291,-2.083 5.997,-4.171 7.665,-7.881c0.593,-1.32 1.418,-2.855 1.692,-4.268c0.085,-0.437 -0.08,-1.832 0.22,-2.116c0.648,-0.613 2.145,-0.497 2.954,-0.513c2.289,-0.046 4.548,0.134 6.835,0.142c0.881,0.003 2.416,-0.297 3.227,0.028" style="fill:none;stroke:#2d2615;stroke-width:3px;"/><path d="M154.176,84.201c-1.256,-0.109 -2.596,-1.045 -3.64,-1.706c-3.291,-2.083 -5.997,-4.171 -7.665,-7.881c-0.593,-1.32 -1.418,-2.855 -1.692,-4.268c-0.085,-0.437 0.079,-1.832 -0.221,-2.116c-0.648,-0.613 -2.144,-0.497 -2.953,-0.513c-2.289,-0.046 -4.549,0.134 -6.835,0.142c-0.881,0.003 -2.416,-0.297 -3.227,0.028" style="fill:none;stroke:#2d2615;stroke-width:3px;"/><path d="M229.571,83.2l0,7.669" style="fill:none;stroke:#2d2615;stroke-width:3px;"/><path d="M161.511,83.2l0,7.669" style="fill:none;stroke:#2d2615;stroke-width:3px;"/><path d="M236.74,84.034c-0,1.737 0.231,3.811 0.525,5.514" style="fill:none;stroke:#2d2615;stroke-width:3px;"/><path d="M154.343,84.034c-0,1.737 -0.232,3.811 -0.525,5.514" style="fill:none;stroke:#2d2615;stroke-width:3px;"/><path d="M170.677,91.387c-0.672,-1.923 -1.019,-6.676 0.422,-8.331c0.881,-1.013 3.451,-1.08 4.701,-1.808c3.079,-1.792 6.278,-4.701 8.671,-7.315c1.086,-1.186 1.318,-2.989 1.779,-4.46c0.498,-1.587 1.468,-3.028 2.238,-4.486c0.529,-1.001 0.594,-2.412 1.85,-2.807c2.566,-0.807 5.432,-0.023 8.055,0.015c0.513,0.007 2.552,-0.264 2.864,0.096c1.194,1.379 0.76,3.668 0.988,5.346c0.506,3.727 2.784,8.535 6.11,10.472c3.083,1.795 5.808,2.377 9.238,3.034c1.072,0.206 3.325,-0.233 4.071,0.714c1.805,2.292 0.384,7.254 0.607,9.951" style="fill:none;stroke:#2d2615;stroke-width:3px;"/><path d="M216.314,93.68c-0,-1.859 0.156,-3.592 0.317,-5.423c0.022,-0.243 0.304,-1.644 0.247,-1.725c-0.632,-0.894 -2.763,-0.698 -3.69,-0.743c-2.934,-0.143 -6.805,-0.717 -9.003,-2.893c-2.445,-2.421 -5.281,-5.887 -5.669,-9.437c-0.151,-1.382 0.279,-5.307 -1.251,-5.831c-0.912,-0.313 -2.926,-0.662 -3.615,0.252c-0.987,1.307 -0.63,3.636 -0.669,5.169c-0.057,2.27 -1.079,4.899 -2.553,6.636c-2.446,2.886 -7.24,3.529 -10.503,5.156c-0.805,0.401 -2.496,0.576 -3.053,1.268c-1.208,1.503 -0.633,4.128 -0.99,5.924" style="fill:none;stroke:#2d2615;stroke-width:3px;"/></g><g><circle cx="429.028" cy="61.816" r="10.289" style="fill:none;stroke:#2d2615;stroke-width:3px;"/><circle cx="429.028" cy="61.816" r="14.561" style="fill:none;stroke:#2d2615;stroke-width:3px;"/><circle cx="483.626" cy="61.816" r="10.289" style="fill:none;stroke:#2d2615;stroke-width:3px;"/><circle cx="483.626" cy="18.888" r="10.289" style="fill:none;stroke:#2d2615;stroke-width:3px;"/><circle cx="429.028" cy="18.888" r="10.289" style="fill:none;stroke:#2d2615;stroke-width:3px;"/><circle cx="429.028" cy="18.888" r="14.561" style="fill:none;stroke:#2d2615;stroke-width:3px;"/><circle cx="483.626" cy="61.816" r="14.561" style="fill:none;stroke:#2d2615;stroke-width:3px;"/><circle cx="483.626" cy="18.888" r="14.561" style="fill:none;stroke:#2d2615;stroke-width:3px;"/><path d="M448.887,55.61c0,-2.128 -2.286,-4.114 -3.66,-5.511c-0.905,-0.92 -1.54,-2.15 -2.345,-3.155c-1.575,-1.965 -4.255,-4.321 -4.847,-6.901c-0.144,-0.63 1.342,-1.691 1.698,-2.085c1.577,-1.741 3.271,-3.398 4.888,-5.107c1.508,-1.594 3.001,-4.304 3.9,-6.334c0.264,-0.596 0.332,-1.968 0.71,-2.408c0.624,-0.729 2.152,-0.622 2.991,-0.648c2.609,-0.08 5.225,-0.026 7.835,-0.026c0.711,-0 2.081,-0.466 2.723,-0.135c0.815,0.42 0.917,2.081 1.187,2.843c0.734,2.069 2.05,4.186 3.015,6.164c0.9,1.845 2.466,3.034 3.573,4.703c0.241,0.364 1.009,0.905 1.121,1.303c0.266,0.946 -2.044,2.983 -2.491,3.765c-1.605,2.804 -3.194,6.072 -4.312,9.092c-0.445,1.202 -0.38,3.586 -1.5,4.417c-1.061,0.788 -3.087,0.538 -4.32,0.433c-2.807,-0.239 -5.683,-0.077 -8.499,-0.077" style="fill:none;stroke:#2d2615;stroke-width:3px;"/><path d="M452.055,52.776c-1.522,-2.816 -3.291,-6.034 -5.344,-8.496c-0.571,-0.685 -1.144,-1.496 -1.599,-2.272c-0.086,-0.148 -0.606,-0.605 -0.57,-0.75c0.338,-1.366 2.665,-2.237 3.386,-3.457c1.214,-2.052 2.799,-3.829 3.896,-5.965c0.361,-0.703 0.449,-2.302 1.07,-2.726c1.144,-0.782 3.037,-0.352 4.329,-0.346c0.771,0.004 2.439,-0.322 3.103,0.106c0.763,0.493 0.82,1.958 0.954,2.741c0.313,1.834 1.045,4.134 2.158,5.628c0.36,0.484 1.674,2.005 1.568,2.541c-0.18,0.905 -1.407,1.613 -2.017,2.246c-1.138,1.179 -2.147,2.825 -2.757,4.321c-0.583,1.43 -0.71,3.13 -1.11,4.628c-0.126,0.471 -0.017,1.226 -0.47,1.551c-1.353,0.974 -4.017,0.117 -5.597,0.095" style="fill:none;stroke:#2d2615;stroke-width:3px;"/><path d="M455.222,48.441c-1.738,-0.962 -2.47,-3.317 -3.502,-4.903c-0.171,-0.263 -1.231,-1.193 -1.204,-1.433c0.112,-1.032 2.24,-2.472 2.788,-3.445c0.526,-0.933 1.169,-3.179 2.076,-3.734c0.296,-0.181 1.569,1.43 1.744,1.633c1.785,2.067 0.994,4.503 0.187,6.754c-0.586,1.637 -0.824,3.282 -1.569,4.873" style="fill:none;stroke:#2d2615;stroke-width:3px;"/><path d="M430.841,-2.155c6.849,-0 11.266,5.268 15.325,10.012c1.443,1.687 3.114,3.129 4.349,4.989c1.304,1.964 2.7,4.103 4.425,5.733c0.119,0.112 0.696,-0.835 0.74,-0.897c0.576,-0.817 0.654,-1.941 1.231,-2.79c1.341,-1.972 3.44,-3.283 4.739,-5.296c3.339,-5.175 9.603,-8.817 14.806,-11.683" style="fill:none;stroke:#2d2615;stroke-width:3px;"/><path d="M435.509,-5.49c2.804,1.515 6.989,1.517 9.439,3.6c2.563,2.18 4.699,5.031 6.962,7.495c0.706,0.768 1.396,2.343 2.275,2.904c0.346,0.221 1.192,-0.984 1.334,-1.158c1.18,-1.454 1.656,-3.275 3.089,-4.567c1.144,-1.031 2.59,-1.519 3.826,-2.406c1.154,-0.829 1.859,-2.212 2.975,-3.13c1.567,-1.289 3.716,-1.847 5.411,-2.95" style="fill:none;stroke:#2d2615;stroke-width:3px;"/><path d="M443.011,-7.157c3.576,1.118 6.7,3.798 10.225,5.203c0.681,0.271 1.666,1.927 2.3,1.944c1.425,0.04 2.278,-1.732 3.351,-2.431c1.106,-0.722 2.023,-1.72 3.231,-2.316c1.542,-0.761 3.544,-1.343 4.905,-2.391" style="fill:none;stroke:#2d2615;stroke-width:1px;"/><path d="M488.689,-2.155c4.751,0.843 8.23,2.979 11.481,6.518c0.973,1.059 2.193,2.094 2.816,3.406c0.775,1.632 1.156,3.448 1.191,5.246c0.013,0.687 -0.114,2.061 0.521,2.495c1.019,0.694 3.27,0.335 4.497,0.337c4.442,0.009 8.755,-0.917 13.171,-1.125" style="fill:none;stroke:#2d2615;stroke-width:3px;"/><path d="M424.63,-2.155c-4.75,0.843 -8.229,2.979 -11.48,6.518c-0.973,1.059 -2.193,2.094 -2.816,3.406c-0.775,1.632 -1.156,3.448 -1.191,5.246c-0.013,0.687 0.114,2.061 -0.522,2.495c-1.018,0.694 -3.269,0.335 -4.496,0.337c-4.442,0.009 -8.755,-0.917 -13.171,-1.125" style="fill:none;stroke:#2d2615;stroke-width:3px;"/><path d="M521.365,24.185c-2.97,0.889 -7.247,0.825 -10.336,0.5c-1.738,-0.183 -5.668,-0.976 -7.518,-0.33c-1.179,0.412 -1.006,3.219 -1.133,4.165c-0.224,1.663 -1.588,3.458 -2.673,4.677c-1.766,1.982 -5.318,3.289 -7.742,4.179c-0.972,0.357 -2.766,0.373 -3.4,1.345c-0.14,0.216 1.258,1.164 1.4,1.226c1.954,0.858 4.429,1.569 5.716,3.419c0.888,1.278 2.129,2.239 3.002,3.5c1.21,1.748 2.204,3.602 3.607,5.22c0.618,0.713 0.486,2.239 1.205,2.655c1.447,0.838 4.076,0.449 5.702,0.451c2.165,0.002 4.338,0.055 6.502,0.001c2.576,-0.065 5.068,-0.806 7.668,-0.827" style="fill:none;stroke:#2d2615;stroke-width:3px;"/><path d="M391.955,24.185c2.97,0.889 7.247,0.825 10.336,0.5c1.738,-0.183 5.668,-0.976 7.518,-0.33c1.179,0.412 1.006,3.219 1.133,4.165c0.224,1.663 1.588,3.458 2.673,4.677c1.766,1.982 5.317,3.289 7.742,4.179c0.971,0.357 2.766,0.373 3.399,1.345c0.141,0.216 -1.257,1.164 -1.399,1.226c-1.954,0.858 -4.429,1.569 -5.716,3.419c-0.888,1.278 -2.129,2.239 -3.002,3.5c-1.21,1.748 -2.204,3.602 -3.607,5.22c-0.618,0.713 -0.486,2.239 -1.205,2.655c-1.447,0.838 -4.076,0.449 -5.702,0.451c-2.165,0.002 -4.338,0.055 -6.502,0.001c-2.576,-0.065 -5.068,-0.806 -7.668,-0.827" style="fill:none;stroke:#2d2615;stroke-width:3px;"/><path d="M522.698,29.353l-12.003,-0c-1.159,-0 -3.096,-0.796 -4.033,-0.397c-0.556,0.237 -0.647,1.233 -0.703,1.736c-0.165,1.471 -0.044,2.624 -0.918,3.905c-0.897,1.317 -2.379,2.779 -3.582,3.846c-0.535,0.475 -1.559,0.49 -1.768,1.315c-0.157,0.619 0.482,1.49 0.831,1.934c1.117,1.427 3.186,2.247 4.041,3.806c0.489,0.891 0.991,1.851 1.157,2.872c0.106,0.659 -0.068,1.49 0.604,1.874c1.347,0.77 3.528,0.443 5.038,0.446c4.097,0.009 8.112,-0.386 12.17,-0.479" style="fill:none;stroke:#2d2615;stroke-width:3px;"/><path d="M390.622,29.353l12.003,-0c1.159,-0 3.096,-0.796 4.033,-0.397c0.556,0.237 0.646,1.233 0.703,1.736c0.165,1.471 0.044,2.624 0.917,3.905c0.898,1.317 2.38,2.779 3.583,3.846c0.535,0.475 1.559,0.49 1.768,1.315c0.157,0.619 -0.482,1.49 -0.831,1.934c-1.117,1.427 -3.186,2.247 -4.041,3.806c-0.489,0.891 -0.991,1.851 -1.157,2.872c-0.106,0.659 0.068,1.49 -0.604,1.874c-1.347,0.77 -3.528,0.443 -5.038,0.446c-4.097,0.009 -8.112,-0.386 -12.17,-0.479" style="fill:none;stroke:#2d2615;stroke-width:3px;"/><path d="M524.199,45.524c-2.781,-0 -5.547,0.164 -8.336,0.166c-1.224,0.001 -2.9,0.245 -4.037,-0.255c-1.193,-0.525 -2.315,-2.332 -3.353,-3.179c-0.47,-0.384 -1.052,-0.535 -1.06,-1.235c-0.011,-0.867 1.554,-2.11 1.98,-2.81c0.423,-0.694 0.771,-2.351 1.555,-2.655c2.353,-0.913 5.38,-0.155 7.759,0.174c1.637,0.227 3.343,0.123 4.992,0.124" style="fill:none;stroke:#2d2615;stroke-width:3px;"/><path d="M389.121,45.524c2.781,-0 5.547,0.164 8.336,0.166c1.223,0.001 2.9,0.245 4.037,-0.255c1.193,-0.525 2.315,-2.332 3.353,-3.179c0.47,-0.384 1.052,-0.535 1.06,-1.235c0.011,-0.867 -1.554,-2.11 -1.98,-2.81c-0.423,-0.694 -0.771,-2.351 -1.555,-2.655c-2.353,-0.913 -5.38,-0.155 -7.759,0.174c-1.637,0.227 -3.343,0.123 -4.992,0.124" style="fill:none;stroke:#2d2615;stroke-width:3px;"/><path d="M490.69,82.867c2.259,-0 3.558,-1.11 5.375,-2.284c2.091,-1.352 4.168,-2.8 5.75,-4.754c0.834,-1.031 1.098,-2.761 1.545,-3.982c0.468,-1.276 1.257,-2.404 1.684,-3.713c0.403,-1.238 0.614,-2.478 0.733,-3.776c0.038,-0.41 -0.114,-1.22 0.203,-1.535c0.69,-0.686 3.449,-0.291 4.382,-0.293c4.729,-0.006 9.448,-0.161 14.17,-0.167" style="fill:none;stroke:#2d2615;stroke-width:3px;"/><path d="M422.63,82.867c-2.259,-0 -3.558,-1.11 -5.375,-2.284c-2.091,-1.352 -4.168,-2.8 -5.75,-4.754c-0.834,-1.031 -1.098,-2.761 -1.545,-3.982c-0.468,-1.276 -1.257,-2.404 -1.684,-3.713c-0.403,-1.238 -0.614,-2.478 -0.733,-3.776c-0.038,-0.41 0.113,-1.22 -0.203,-1.535c-0.69,-0.686 -3.449,-0.291 -4.382,-0.293c-4.729,-0.006 -9.448,-0.161 -14.17,-0.167" style="fill:none;stroke:#2d2615;stroke-width:3px;"/><path d="M498.025,84.201c1.257,-0.109 2.596,-1.045 3.641,-1.706c3.291,-2.083 5.996,-4.171 7.664,-7.881c0.594,-1.32 1.419,-2.855 1.693,-4.268c0.084,-0.437 -0.08,-1.832 0.22,-2.116c0.648,-0.613 2.144,-0.497 2.953,-0.513c2.289,-0.046 4.549,0.134 6.835,0.142c0.881,0.003 2.417,-0.297 3.227,0.028" style="fill:none;stroke:#2d2615;stroke-width:3px;"/><path d="M415.295,84.201c-1.257,-0.109 -2.596,-1.045 -3.641,-1.706c-3.291,-2.083 -5.996,-4.171 -7.664,-7.881c-0.594,-1.32 -1.419,-2.855 -1.693,-4.268c-0.084,-0.437 0.08,-1.832 -0.22,-2.116c-0.648,-0.613 -2.144,-0.497 -2.953,-0.513c-2.289,-0.046 -4.549,0.134 -6.835,0.142c-0.881,0.003 -2.417,-0.297 -3.227,0.028" style="fill:none;stroke:#2d2615;stroke-width:3px;"/><path d="M490.69,83.2l-0,7.669" style="fill:none;stroke:#2d2615;stroke-width:3px;"/><path d="M422.63,83.2l-0,7.669" style="fill:none;stroke:#2d2615;stroke-width:3px;"/><path d="M497.859,84.034c-0,1.737 0.231,3.811 0.525,5.514" style="fill:none;stroke:#2d2615;stroke-width:3px;"/><path d="M415.461,84.034c0,1.737 -0.231,3.811 -0.525,5.514" style="fill:none;stroke:#2d2615;stroke-width:3px;"/><path d="M431.796,91.387c-0.672,-1.923 -1.019,-6.676 0.421,-8.331c0.882,-1.013 3.452,-1.08 4.702,-1.808c3.078,-1.792 6.278,-4.701 8.671,-7.315c1.086,-1.186 1.318,-2.989 1.779,-4.46c0.497,-1.587 1.468,-3.028 2.238,-4.486c0.529,-1.001 0.594,-2.412 1.85,-2.807c2.565,-0.807 5.431,-0.023 8.054,0.015c0.514,0.007 2.553,-0.264 2.865,0.096c1.193,1.379 0.76,3.668 0.988,5.346c0.505,3.727 2.783,8.535 6.109,10.472c3.083,1.795 5.808,2.377 9.238,3.034c1.073,0.206 3.325,-0.233 4.072,0.714c1.804,2.292 0.383,7.254 0.607,9.951" style="fill:none;stroke:#2d2615;stroke-width:3px;"/><path d="M477.433,93.68c-0,-1.859 0.156,-3.592 0.317,-5.423c0.021,-0.243 0.304,-1.644 0.246,-1.725c-0.632,-0.894 -2.762,-0.698 -3.69,-0.743c-2.933,-0.143 -6.804,-0.717 -9.002,-2.893c-2.445,-2.421 -5.281,-5.887 -5.669,-9.437c-0.151,-1.382 0.278,-5.307 -1.251,-5.831c-0.913,-0.313 -2.926,-0.662 -3.616,0.252c-0.986,1.307 -0.629,3.636 -0.668,5.169c-0.058,2.27 -1.08,4.899 -2.553,6.636c-2.447,2.886 -7.24,3.529 -10.504,5.156c-0.804,0.401 -2.495,0.576 -3.052,1.268c-1.208,1.503 -0.634,4.128 -0.991,5.924" style="fill:none;stroke:#2d2615;stroke-width:3px;"/></g><g><circle cx="690.721" cy="61.816" r="10.289" style="fill:none;stroke:#2d2615;stroke-width:3px;"/><circle cx="690.721" cy="61.816" r="14.561" style="fill:none;stroke:#2d2615;stroke-width:3px;"/><circle cx="745.319" cy="61.816" r="10.289" style="fill:none;stroke:#2d2615;stroke-width:3px;"/><circle cx="745.319" cy="18.888" r="10.289" style="fill:none;stroke:#2d2615;stroke-width:3px;"/><circle cx="690.721" cy="18.888" r="10.289" style="fill:none;stroke:#2d2615;stroke-width:3px;"/><circle cx="690.721" cy="18.888" r="14.561" style="fill:none;stroke:#2d2615;stroke-width:3px;"/><circle cx="745.319" cy="61.816" r="14.561" style="fill:none;stroke:#2d2615;stroke-width:3px;"/><circle cx="745.319" cy="18.888" r="14.561" style="fill:none;stroke:#2d2615;stroke-width:3px;"/><path d="M710.58,55.61c0,-2.128 -2.286,-4.114 -3.66,-5.511c-0.905,-0.92 -1.54,-2.15 -2.345,-3.155c-1.575,-1.965 -4.255,-4.321 -4.847,-6.901c-0.144,-0.63 1.342,-1.691 1.698,-2.085c1.577,-1.741 3.271,-3.398 4.888,-5.107c1.508,-1.594 3.001,-4.304 3.9,-6.334c0.264,-0.596 0.332,-1.968 0.71,-2.408c0.624,-0.729 2.152,-0.622 2.991,-0.648c2.609,-0.08 5.225,-0.026 7.835,-0.026c0.711,-0 2.081,-0.466 2.724,-0.135c0.814,0.42 0.916,2.081 1.186,2.843c0.734,2.069 2.05,4.186 3.015,6.164c0.9,1.845 2.466,3.034 3.573,4.703c0.241,0.364 1.009,0.905 1.121,1.303c0.266,0.946 -2.044,2.983 -2.491,3.765c-1.605,2.804 -3.194,6.072 -4.312,9.092c-0.445,1.202 -0.38,3.586 -1.5,4.417c-1.061,0.788 -3.087,0.538 -4.32,0.433c-2.807,-0.239 -5.683,-0.077 -8.498,-0.077" style="fill:none;stroke:#2d2615;stroke-width:3px;"/><path d="M713.748,52.776c-1.522,-2.816 -3.291,-6.034 -5.344,-8.496c-0.571,-0.685 -1.144,-1.496 -1.599,-2.272c-0.086,-0.148 -0.606,-0.605 -0.57,-0.75c0.338,-1.366 2.665,-2.237 3.387,-3.457c1.213,-2.052 2.798,-3.829 3.895,-5.965c0.361,-0.703 0.449,-2.302 1.07,-2.726c1.144,-0.782 3.037,-0.352 4.329,-0.346c0.771,0.004 2.439,-0.322 3.103,0.106c0.763,0.493 0.82,1.958 0.954,2.741c0.313,1.834 1.045,4.134 2.158,5.628c0.36,0.484 1.675,2.005 1.568,2.541c-0.18,0.905 -1.407,1.613 -2.017,2.246c-1.138,1.179 -2.147,2.825 -2.757,4.321c-0.583,1.43 -0.71,3.13 -1.11,4.628c-0.126,0.471 -0.017,1.226 -0.47,1.551c-1.353,0.974 -4.017,0.117 -5.597,0.095" style="fill:none;stroke:#2d2615;stroke-width:3px;"/><path d="M716.915,48.441c-1.738,-0.962 -2.47,-3.317 -3.502,-4.903c-0.171,-0.263 -1.231,-1.193 -1.204,-1.433c0.112,-1.032 2.24,-2.472 2.788,-3.445c0.526,-0.933 1.169,-3.179 2.076,-3.734c0.296,-0.181 1.57,1.43 1.744,1.633c1.785,2.067 0.994,4.503 0.187,6.754c-0.586,1.637 -0.824,3.282 -1.568,4.873" style="fill:none;stroke:#2d2615;stroke-width:3px;"/><path d="M692.534,-2.155c6.849,-0 11.266,5.268 15.325,10.012c1.443,1.687 3.114,3.129 4.35,4.989c1.303,1.964 2.699,4.103 4.424,5.733c0.119,0.112 0.697,-0.835 0.74,-0.897c0.576,-0.817 0.654,-1.941 1.231,-2.79c1.341,-1.972 3.44,-3.283 4.739,-5.296c3.34,-5.175 9.604,-8.817 14.806,-11.683" style="fill:none;stroke:#2d2615;stroke-width:3px;"/><path d="M697.202,-5.49c2.804,1.515 6.99,1.517 9.439,3.6c2.563,2.18 4.699,5.031 6.962,7.495c0.706,0.768 1.396,2.343 2.275,2.904c0.346,0.221 1.192,-0.984 1.334,-1.158c1.18,-1.454 1.657,-3.275 3.09,-4.567c1.143,-1.031 2.589,-1.519 3.825,-2.406c1.154,-0.829 1.859,-2.212 2.975,-3.13c1.567,-1.289 3.716,-1.847 5.411,-2.95" style="fill:none;stroke:#2d2615;stroke-width:3px;"/><path d="M704.704,-7.157c3.577,1.118 6.7,3.798 10.225,5.203c0.681,0.271 1.666,1.927 2.3,1.944c1.425,0.04 2.278,-1.732 3.351,-2.431c1.107,-0.722 2.023,-1.72 3.231,-2.316c1.543,-0.761 3.544,-1.343 4.906,-2.391" style="fill:none;stroke:#2d2615;stroke-width:1px;"/><path d="M750.383,-2.155c4.75,0.843 8.229,2.979 11.48,6.518c0.973,1.059 2.193,2.094 2.816,3.406c0.775,1.632 1.156,3.448 1.191,5.246c0.013,0.687 -0.114,2.061 0.522,2.495c1.018,0.694 3.269,0.335 4.496,0.337c4.443,0.009 8.756,-0.917 13.171,-1.125" style="fill:none;stroke:#2d2615;stroke-width:3px;"/><path d="M686.324,-2.155c-4.751,0.843 -8.23,2.979 -11.481,6.518c-0.973,1.059 -2.193,2.094 -2.816,3.406c-0.775,1.632 -1.156,3.448 -1.191,5.246c-0.013,0.687 0.114,2.061 -0.521,2.495c-1.019,0.694 -3.27,0.335 -4.497,0.337c-4.442,0.009 -8.755,-0.917 -13.171,-1.125" style="fill:none;stroke:#2d2615;stroke-width:3px;"/><path d="M783.058,24.185c-2.97,0.889 -7.247,0.825 -10.336,0.5c-1.738,-0.183 -5.668,-0.976 -7.518,-0.33c-1.179,0.412 -1.006,3.219 -1.133,4.165c-0.224,1.663 -1.588,3.458 -2.673,4.677c-1.766,1.982 -5.317,3.289 -7.742,4.179c-0.971,0.357 -2.766,0.373 -3.399,1.345c-0.141,0.216 1.257,1.164 1.399,1.226c1.954,0.858 4.429,1.569 5.716,3.419c0.888,1.278 2.129,2.239 3.002,3.5c1.21,1.748 2.204,3.602 3.607,5.22c0.618,0.713 0.486,2.239 1.205,2.655c1.447,0.838 4.076,0.449 5.702,0.451c2.165,0.002 4.338,0.055 6.502,0.001c2.576,-0.065 5.068,-0.806 7.668,-0.827" style="fill:none;stroke:#2d2615;stroke-width:3px;"/><path d="M653.648,24.185c2.97,0.889 7.247,0.825 10.336,0.5c1.738,-0.183 5.668,-0.976 7.518,-0.33c1.179,0.412 1.006,3.219 1.133,4.165c0.224,1.663 1.588,3.458 2.674,4.677c1.765,1.982 5.317,3.289 7.741,4.179c0.972,0.357 2.766,0.373 3.4,1.345c0.14,0.216 -1.258,1.164 -1.4,1.226c-1.954,0.858 -4.429,1.569 -5.715,3.419c-0.889,1.278 -2.13,2.239 -3.003,3.5c-1.21,1.748 -2.204,3.602 -3.607,5.22c-0.618,0.713 -0.486,2.239 -1.205,2.655c-1.447,0.838 -4.076,0.449 -5.702,0.451c-2.165,0.002 -4.337,0.055 -6.501,0.001c-2.577,-0.065 -5.069,-0.806 -7.669,-0.827" style="fill:none;stroke:#2d2615;stroke-width:3px;"/><path d="M784.391,29.353l-12.003,-0c-1.159,-0 -3.096,-0.796 -4.033,-0.397c-0.556,0.237 -0.646,1.233 -0.703,1.736c-0.165,1.471 -0.044,2.624 -0.917,3.905c-0.898,1.317 -2.38,2.779 -3.583,3.846c-0.535,0.475 -1.559,0.49 -1.768,1.315c-0.157,0.619 0.482,1.49 0.831,1.934c1.117,1.427 3.186,2.247 4.041,3.806c0.489,0.891 0.991,1.851 1.157,2.872c0.106,0.659 -0.068,1.49 0.604,1.874c1.347,0.77 3.528,0.443 5.038,0.446c4.097,0.009 8.112,-0.386 12.17,-0.479" style="fill:none;stroke:#2d2615;stroke-width:3px;"/><path d="M652.315,29.353l12.003,-0c1.159,-0 3.096,-0.796 4.033,-0.397c0.556,0.237 0.647,1.233 0.703,1.736c0.165,1.471 0.044,2.624 0.918,3.905c0.897,1.317 2.379,2.779 3.582,3.846c0.535,0.475 1.559,0.49 1.768,1.315c0.157,0.619 -0.482,1.49 -0.831,1.934c-1.117,1.427 -3.186,2.247 -4.041,3.806c-0.489,0.891 -0.991,1.851 -1.157,2.872c-0.106,0.659 0.068,1.49 -0.604,1.874c-1.347,0.77 -3.528,0.443 -5.038,0.446c-4.097,0.009 -8.112,-0.386 -12.17,-0.479" style="fill:none;stroke:#2d2615;stroke-width:3px;"/><path d="M785.892,45.524c-2.781,-0 -5.547,0.164 -8.336,0.166c-1.223,0.001 -2.9,0.245 -4.037,-0.255c-1.193,-0.525 -2.315,-2.332 -3.353,-3.179c-0.47,-0.384 -1.052,-0.535 -1.06,-1.235c-0.011,-0.867 1.554,-2.11 1.98,-2.81c0.423,-0.694 0.771,-2.351 1.555,-2.655c2.353,-0.913 5.38,-0.155 7.759,0.174c1.637,0.227 3.343,0.123 4.992,0.124" style="fill:none;stroke:#2d2615;stroke-width:3px;"/><path d="M650.814,45.524c2.781,-0 5.547,0.164 8.336,0.166c1.224,0.001 2.9,0.245 4.038,-0.255c1.192,-0.525 2.314,-2.332 3.352,-3.179c0.47,-0.384 1.052,-0.535 1.06,-1.235c0.011,-0.867 -1.554,-2.11 -1.98,-2.81c-0.423,-0.694 -0.771,-2.351 -1.555,-2.655c-2.353,-0.913 -5.38,-0.155 -7.759,0.174c-1.637,0.227 -3.343,0.123 -4.992,0.124" style="fill:none;stroke:#2d2615;stroke-width:3px;"/><path d="M752.383,82.867c2.259,-0 3.558,-1.11 5.375,-2.284c2.091,-1.352 4.168,-2.8 5.75,-4.754c0.834,-1.031 1.098,-2.761 1.545,-3.982c0.468,-1.276 1.257,-2.404 1.684,-3.713c0.403,-1.238 0.614,-2.478 0.733,-3.776c0.038,-0.41 -0.113,-1.22 0.203,-1.535c0.69,-0.686 3.449,-0.291 4.382,-0.293c4.729,-0.006 9.448,-0.161 14.17,-0.167" style="fill:none;stroke:#2d2615;stroke-width:3px;"/><path d="M684.323,82.867c-2.259,-0 -3.558,-1.11 -5.375,-2.284c-2.091,-1.352 -4.168,-2.8 -5.75,-4.754c-0.834,-1.031 -1.098,-2.761 -1.545,-3.982c-0.468,-1.276 -1.257,-2.404 -1.684,-3.713c-0.403,-1.238 -0.614,-2.478 -0.733,-3.776c-0.038,-0.41 0.114,-1.22 -0.203,-1.535c-0.69,-0.686 -3.449,-0.291 -4.382,-0.293c-4.729,-0.006 -9.448,-0.161 -14.17,-0.167" style="fill:none;stroke:#2d2615;stroke-width:3px;"/><path d="M759.718,84.201c1.257,-0.109 2.596,-1.045 3.641,-1.706c3.291,-2.083 5.996,-4.171 7.664,-7.881c0.594,-1.32 1.419,-2.855 1.693,-4.268c0.084,-0.437 -0.08,-1.832 0.22,-2.116c0.648,-0.613 2.144,-0.497 2.953,-0.513c2.289,-0.046 4.549,0.134 6.835,0.142c0.881,0.003 2.417,-0.297 3.228,0.028" style="fill:none;stroke:#2d2615;stroke-width:3px;"/><path d="M676.988,84.201c-1.257,-0.109 -2.596,-1.045 -3.641,-1.706c-3.29,-2.083 -5.996,-4.171 -7.664,-7.881c-0.594,-1.32 -1.419,-2.855 -1.693,-4.268c-0.084,-0.437 0.08,-1.832 -0.22,-2.116c-0.648,-0.613 -2.144,-0.497 -2.953,-0.513c-2.289,-0.046 -4.549,0.134 -6.835,0.142c-0.881,0.003 -2.417,-0.297 -3.227,0.028" style="fill:none;stroke:#2d2615;stroke-width:3px;"/><path d="M752.383,83.2l0,7.669" style="fill:none;stroke:#2d2615;stroke-width:3px;"/><path d="M684.323,83.2l0,7.669" style="fill:none;stroke:#2d2615;stroke-width:3px;"/><path d="M759.552,84.034c-0,1.737 0.231,3.811 0.525,5.514" style="fill:none;stroke:#2d2615;stroke-width:3px;"/><path d="M677.155,84.034c-0,1.737 -0.232,3.811 -0.526,5.514" style="fill:none;stroke:#2d2615;stroke-width:3px;"/><path d="M693.489,91.387c-0.672,-1.923 -1.019,-6.676 0.422,-8.331c0.881,-1.013 3.451,-1.08 4.701,-1.808c3.078,-1.792 6.278,-4.701 8.671,-7.315c1.086,-1.186 1.318,-2.989 1.779,-4.46c0.498,-1.587 1.468,-3.028 2.238,-4.486c0.529,-1.001 0.594,-2.412 1.85,-2.807c2.566,-0.807 5.431,-0.023 8.054,0.015c0.514,0.007 2.553,-0.264 2.865,0.096c1.193,1.379 0.76,3.668 0.988,5.346c0.505,3.727 2.784,8.535 6.109,10.472c3.083,1.795 5.809,2.377 9.238,3.034c1.073,0.206 3.325,-0.233 4.072,0.714c1.804,2.292 0.384,7.254 0.607,9.951" style="fill:none;stroke:#2d2615;stroke-width:3px;"/><path d="M739.126,93.68c-0,-1.859 0.156,-3.592 0.317,-5.423c0.021,-0.243 0.304,-1.644 0.247,-1.725c-0.633,-0.894 -2.763,-0.698 -3.691,-0.743c-2.933,-0.143 -6.804,-0.717 -9.002,-2.893c-2.445,-2.421 -5.281,-5.887 -5.669,-9.437c-0.151,-1.382 0.278,-5.307 -1.251,-5.831c-0.913,-0.313 -2.926,-0.662 -3.616,0.252c-0.986,1.307 -0.629,3.636 -0.668,5.169c-0.058,2.27 -1.08,4.899 -2.553,6.636c-2.446,2.886 -7.24,3.529 -10.504,5.156c-0.804,0.401 -2.495,0.576 -3.052,1.268c-1.208,1.503 -0.633,4.128 -0.991,5.924" style="fill:none;stroke:#2d2615;stroke-width:3px;"/></g></g></svg>